<svg width="1110" height="150" viewBox="0 0 1110 150" fill="none" xmlns="http://www.w3.org/2000/svg">
<rect x="972" y="129.12" width="138" height="12" rx="1.38" fill="#FFFDFB"/>
<path d="M808.107 4.24122C808.107 3.57605 808.58 3.00415 809.235 2.88637C814.038 2.02212 819.472 1.33507 825.538 0.825217C832.216 0.275072 838.293 0 843.77 0C849.914 0 855.724 0.687689 861.2 2.06307C866.81 3.43844 871.685 5.70782 875.826 8.87119C880.1 12.0346 883.506 16.1607 886.043 21.2496C888.581 26.3385 889.85 32.5277 889.85 39.8172C889.85 45.4563 888.915 50.4764 887.045 54.8776C885.309 59.1413 883.105 62.8548 880.434 66.0182C877.896 69.044 875.225 71.5197 872.42 73.4452C870.241 74.9411 868.303 76.1049 866.608 76.9368C865.87 77.2989 865.548 78.2014 865.939 78.9246L901.166 144.022C901.665 144.944 900.997 146.065 899.948 146.065H883.678C883.162 146.065 882.688 145.778 882.45 145.32L850.168 83.2683C849.93 82.8102 849.456 82.5228 848.94 82.5228H826.121C825.356 82.5228 824.736 83.1426 824.736 83.9073V144.681C824.736 145.445 824.117 146.065 823.352 146.065H809.492C808.727 146.065 808.107 145.445 808.107 144.681V4.24122ZM844.17 14.8541C842.434 14.8541 840.631 14.8541 838.761 14.8541C836.891 14.8541 835.088 14.9229 833.351 15.0604C831.615 15.1979 829.945 15.3355 828.343 15.473C827.355 15.5655 826.488 15.689 825.742 15.8437C825.14 15.9683 824.736 16.5137 824.736 17.1278V67.9345C824.736 68.6992 825.356 69.3191 826.121 69.3191H840.364C849.58 69.3191 857.193 66.981 863.204 62.3047C869.214 57.6284 872.219 50.3389 872.219 40.4361C872.219 33.0091 869.748 26.8887 864.806 22.0748C859.864 17.261 852.986 14.8541 844.17 14.8541Z" fill="#FFFDFB"/>
<rect x="648.533" y="129.104" width="83.6049" height="15.356" rx="1.38" fill="#FFFDFB"/>
<rect x="648.533" width="82.4674" height="15.356" rx="1.38" fill="#FFFDFB"/>
<rect x="648.533" y="62.5613" width="77.3488" height="15.356" rx="1.38" fill="#FFFDFB"/>
<path d="M556.934 17.8327C556.934 17.1786 556.478 16.6121 555.835 16.4909C551.507 15.6748 546.331 15.2667 540.305 15.2667C534.695 15.2667 529.286 16.2982 524.077 18.3613C519.001 20.2868 514.46 23.5877 510.453 28.264C506.58 32.9403 503.441 39.0608 501.037 46.6253C498.766 54.1899 497.631 63.5425 497.631 74.6831C497.631 95.0387 501.237 110.03 508.45 119.658C515.796 129.286 526.348 134.099 540.105 134.099C548.323 134.099 555.369 132.51 561.241 129.332C561.678 129.096 561.943 128.635 561.943 128.139V90.0965C561.943 89.3318 561.323 88.712 560.558 88.712H534.477C533.713 88.712 533.093 88.0921 533.093 87.3274V76.274C533.093 75.5093 533.713 74.8894 534.477 74.8894H574.783C575.548 74.8894 576.168 75.5093 576.168 76.274V137.752C576.168 138.181 575.97 138.587 575.625 138.841C573.594 140.333 571.171 141.71 568.354 142.971C565.416 144.346 562.21 145.515 558.737 146.478C555.398 147.441 551.859 148.128 548.119 148.541C544.513 149.091 540.973 149.366 537.5 149.366C528.551 149.366 520.537 147.922 513.458 145.034C506.379 142.008 500.369 137.469 495.427 131.417C490.485 125.228 486.678 117.457 484.007 108.105C481.336 98.6147 480 87.4741 480 74.6831C480 61.3419 481.67 49.9263 485.009 40.4361C488.348 30.946 492.756 23.2439 498.232 17.3298C503.708 11.2781 509.986 6.87689 517.065 4.12613C524.144 1.37538 531.423 0 538.903 0C546.917 0 553.528 0.481381 558.737 1.44414C563.619 2.2175 567.797 3.29284 571.271 4.67016C571.67 4.8283 571.886 5.25804 571.785 5.675C571.768 5.74249 571.76 5.81169 571.76 5.88113V38.8453C571.76 39.6099 571.14 40.2298 570.375 40.2298H558.319C557.554 40.2298 556.934 39.6099 556.934 38.8453V17.8327Z" fill="#FFFDFB"/>
<path d="M319.644 2.86007C319.644 2.16724 320.155 1.58029 320.843 1.49354C325.549 0.899657 330.425 0.539345 335.471 0.412608C341.081 0.137536 345.823 0 349.696 0C361.85 0 372.002 1.78799 380.149 5.36397C388.43 8.93996 395.042 13.9601 399.984 20.4244C405.059 26.7511 408.665 34.3845 410.803 43.3244C413.073 52.2644 414.208 62.0984 414.208 72.8263C414.208 82.5915 413.207 92.0129 411.203 101.09C409.2 110.03 405.727 118.008 400.785 125.022C395.843 131.899 389.165 137.469 380.75 141.733C372.469 145.859 362.051 147.922 349.496 147.922C347.759 147.922 345.489 147.853 342.684 147.716C339.879 147.716 337.007 147.578 334.069 147.303C331.13 147.166 328.325 147.028 325.654 146.891C323.642 146.787 322.01 146.644 320.755 146.463C320.105 146.369 319.644 145.8 319.644 145.143V2.86007ZM350.497 15.2667C348.627 15.2667 346.223 15.3355 343.285 15.473C341.001 15.585 339.027 15.7881 337.364 16.0824C336.724 16.1956 336.273 16.7609 336.273 17.4106V130.702C336.273 131.359 336.734 131.926 337.384 132.023C337.873 132.096 338.437 132.169 339.077 132.243C340.413 132.243 341.749 132.311 343.084 132.449C344.42 132.449 345.689 132.518 346.891 132.655C348.227 132.655 349.295 132.655 350.097 132.655C359.847 132.655 367.727 131.005 373.738 127.704C379.882 124.403 384.624 120.002 387.963 114.5C391.302 108.861 393.572 102.466 394.775 95.3138C395.977 88.0243 396.578 80.5285 396.578 72.8263C396.578 66.087 396.043 59.3476 394.975 52.6083C393.906 45.7314 391.703 39.5422 388.363 34.0406C385.158 28.5391 380.483 24.0691 374.339 20.6307C368.328 17.0547 360.381 15.2667 350.497 15.2667Z" fill="#FFFDFB"/>
<rect x="166.383" y="129.104" width="83.6049" height="15.356" rx="1.38" fill="#FFFDFB"/>
<rect x="166.383" width="82.4674" height="15.356" rx="1.38" fill="#FFFDFB"/>
<rect x="166.383" y="62.5613" width="77.3488" height="15.356" rx="1.38" fill="#FFFDFB"/>
<path d="M0 1.38457C0 0.619895 0.619893 0 1.38457 0H15.2444C16.0091 0 16.629 0.619893 16.629 1.38457V127.764C16.629 128.528 17.2489 129.148 18.0136 129.148H71.9433C72.708 129.148 73.3279 128.528 73.3279 127.764V94.6353C73.3279 93.8706 73.9478 93.2507 74.7125 93.2507H86.7692C87.5339 93.2507 88.1538 93.8706 88.1538 94.6353V143.03C88.1538 143.795 87.5339 144.415 86.7692 144.415H1.38456C0.619888 144.415 0 143.795 0 143.03V1.38457Z" fill="#FFFDFB"/>
<path d="M1062.38 33.822H1102.96V40.078H1086.14V86.7441H1102.96V93H1062.38V86.7441H1079.12V40.078H1062.38V33.822Z" fill="#FFFDFB" stroke="#FFFDFB" stroke-width="2"/>
<path d="M1009.24 76.5993H986.498L981.087 93H974.155L993.937 33.822H1002.22L1022.17 93H1014.82L1009.24 76.5993ZM988.696 70.5124H1007.29L998.587 42.6987H997.572L988.696 70.5124Z" fill="#FFFDFB" stroke="#FFFDFB" stroke-width="2"/>
</svg>
